<svg width="50" height="49" viewBox="0 0 50 49" fill="none" xmlns="http://www.w3.org/2000/svg">
<circle opacity="0.1" cx="24.607" cy="24.409" r="24.159" fill="#4C4DDC" stroke="#F5F5FF" stroke-width="0.5"/>
<path fill-rule="evenodd" clip-rule="evenodd" d="M24.8464 12.9259C25.6224 12.9259 26.2515 13.5706 26.2515 14.3659C26.2515 15.1612 25.6224 15.8059 24.8464 15.8059L16.2838 15.8059C15.6047 15.8059 15.0543 16.37 15.0543 17.0659L15.0543 33.266C15.0543 33.9619 15.6047 34.526 16.2838 34.526H32.0916C32.7707 34.526 33.3211 33.9619 33.3211 33.266V25.1659C33.3211 24.3706 33.9502 23.7259 34.7263 23.7259C35.5023 23.7259 36.1314 24.3706 36.1314 25.1659V33.266C36.1314 35.5525 34.3227 37.406 32.0916 37.406H16.2838C14.0527 37.406 12.244 35.5525 12.244 33.266V17.0659C12.244 14.7794 14.0527 12.9259 16.2838 12.9259H24.8464ZM37.0767 11.7276C37.6826 12.2243 37.7808 13.1303 37.2961 13.7513L27.3916 26.7811C26.8685 27.4512 25.8932 27.5065 25.3011 26.8997L19.6814 21.1406C19.1328 20.5782 19.1328 19.6667 19.6814 19.1044C20.23 18.5421 21.1196 18.5421 21.6683 19.1044L26.178 23.7261L35.1019 11.9524C35.5867 11.3315 36.4708 11.2308 37.0767 11.7276Z" fill="#3E69FE"/>
</svg>
