<svg width="37" height="37" viewBox="0 0 37 37" fill="none" xmlns="http://www.w3.org/2000/svg">
<circle cx="18.5" cy="18.5" r="18.5" fill="#FFFDFD"/>
<path fill-rule="evenodd" clip-rule="evenodd" d="M22.4493 9.86921C20.9989 9.82609 19.5867 10.3327 18.5029 11.285C17.4191 10.3327 16.007 9.82609 14.5565 9.86921C12.8398 9.86342 11.2107 10.617 10.1168 11.9228C9.17661 13.0484 8.19198 15.0864 8.84412 18.4088C9.88597 23.7117 17.69 28.0642 18.0195 28.2434C18.3182 28.4078 18.6818 28.4078 18.9804 28.2434C19.3129 28.0613 27.1169 23.7088 28.1558 18.4088C28.8079 15.0864 27.8243 13.0533 26.8841 11.9228C25.7915 10.618 24.1644 9.8646 22.4493 9.86921ZM26.0331 18.0739C25.3165 21.7257 20.1102 25.1231 18.5059 26.0933C16.9016 25.1231 11.6953 21.7266 10.9787 18.0739C10.4853 15.5621 11.1605 14.1031 11.8146 13.3209C12.5155 12.4862 13.5582 12.0049 14.6567 12.009C15.8343 11.9218 16.9718 12.4513 17.6528 13.4035C17.8198 13.708 18.1416 13.8987 18.4924 13.9009H18.504C18.8525 13.8985 19.1731 13.7124 19.3446 13.413C20.0248 12.4532 21.168 11.9194 22.3513 12.009C23.4511 12.0037 24.4954 12.4851 25.1973 13.3209C25.8494 14.1031 26.5246 15.5621 26.0312 18.0739H26.0331Z" fill="#3E69FE"/>
</svg>
