<svg width="382" height="44" viewBox="0 0 382 44" fill="none" xmlns="http://www.w3.org/2000/svg">
<path opacity="0.35" d="M343.5 20C343.5 18.8034 344.47 17.8334 345.667 17.8334H362.333C363.53 17.8334 364.5 18.8034 364.5 20V26C364.5 27.1967 363.53 28.1667 362.333 28.1667H345.667C344.47 28.1667 343.5 27.1967 343.5 26V20Z" stroke="#444444"/>
<path opacity="0.4" d="M366 21V25C366.805 24.6613 367.328 23.8732 367.328 23C367.328 22.1269 366.805 21.3388 366 21Z" fill="#444444"/>
<path d="M345 20.6667C345 19.9303 345.597 19.3334 346.333 19.3334H361.667C362.403 19.3334 363 19.9303 363 20.6667V25.3334C363 26.0698 362.403 26.6667 361.667 26.6667H346.333C345.597 26.6667 345 26.0698 345 25.3334V20.6667Z" fill="#444444"/>
<path fill-rule="evenodd" clip-rule="evenodd" d="M330.33 19.608C332.546 19.6081 334.677 20.4596 336.283 21.9863C336.404 22.1042 336.598 22.1027 336.717 21.983L337.873 20.8163C337.933 20.7556 337.967 20.6734 337.966 20.5878C337.966 20.5022 337.931 20.4204 337.87 20.3603C333.655 16.3208 327.005 16.3208 322.79 20.3603C322.729 20.4203 322.694 20.5021 322.694 20.5877C322.693 20.6733 322.727 20.7556 322.787 20.8163L323.943 21.983C324.062 22.1029 324.256 22.1044 324.377 21.9863C325.983 20.4595 328.114 19.608 330.33 19.608ZM330.33 23.4037C331.548 23.4036 332.722 23.8561 333.624 24.6733C333.746 24.7893 333.939 24.7868 334.058 24.6677L335.212 23.501C335.273 23.4398 335.307 23.3568 335.306 23.2705C335.305 23.1843 335.27 23.102 335.208 23.042C332.459 20.4856 328.204 20.4856 325.455 23.042C325.393 23.102 325.358 23.1843 325.357 23.2706C325.356 23.3569 325.39 23.4399 325.451 23.501L326.605 24.6677C326.724 24.7868 326.917 24.7893 327.039 24.6733C327.941 23.8567 329.114 23.4042 330.33 23.4037ZM332.643 25.9575C332.645 26.044 332.611 26.1274 332.549 26.188L330.552 28.2037C330.493 28.2629 330.414 28.2963 330.33 28.2963C330.247 28.2963 330.167 28.2629 330.109 28.2037L328.111 26.188C328.049 26.1274 328.015 26.0439 328.017 25.9574C328.019 25.8709 328.056 25.789 328.121 25.731C329.396 24.6521 331.264 24.6521 332.54 25.731C332.604 25.789 332.642 25.871 332.643 25.9575Z" fill="#444444"/>
<path fill-rule="evenodd" clip-rule="evenodd" d="M316.667 17.6666H315.667C315.114 17.6666 314.667 18.1143 314.667 18.6666V27.3333C314.667 27.8856 315.114 28.3333 315.667 28.3333H316.667C317.219 28.3333 317.667 27.8856 317.667 27.3333V18.6666C317.667 18.1143 317.219 17.6666 316.667 17.6666ZM311 20H312C312.552 20 313 20.4477 313 21V27.3333C313 27.8856 312.552 28.3333 312 28.3333H311C310.448 28.3333 310 27.8856 310 27.3333V21C310 20.4477 310.448 20 311 20ZM307.333 22.3333H306.333C305.781 22.3333 305.333 22.781 305.333 23.3333V27.3333C305.333 27.8856 305.781 28.3333 306.333 28.3333H307.333C307.886 28.3333 308.333 27.8856 308.333 27.3333V23.3333C308.333 22.781 307.886 22.3333 307.333 22.3333ZM302.667 24.3333H301.667C301.114 24.3333 300.667 24.781 300.667 25.3333V27.3333C300.667 27.8856 301.114 28.3333 301.667 28.3333H302.667C303.219 28.3333 303.667 27.8856 303.667 27.3333V25.3333C303.667 24.781 303.219 24.3333 302.667 24.3333Z" fill="#444444"/>
<path d="M29.3207 28.2563C32.0087 28.2563 33.6054 26.1543 33.6054 22.5947C33.6054 21.2544 33.349 20.1265 32.8583 19.2549C32.1479 17.8999 30.9247 17.1675 29.3793 17.1675C27.0795 17.1675 25.4535 18.7129 25.4535 20.8809C25.4535 22.917 26.9184 24.3965 28.9325 24.3965C30.1703 24.3965 31.1737 23.8179 31.6718 22.8145H31.6938C31.6938 22.8145 31.7231 22.8145 31.7304 22.8145C31.745 22.8145 31.7963 22.8145 31.7963 22.8145C31.7963 25.2314 30.8808 26.6743 29.3354 26.6743C28.4272 26.6743 27.724 26.1763 27.4823 25.3779H25.6C25.9149 27.1138 27.3871 28.2563 29.3207 28.2563ZM29.3866 22.895C28.1708 22.895 27.3065 22.0308 27.3065 20.8223C27.3065 19.6431 28.2148 18.7422 29.394 18.7422C30.5732 18.7422 31.4814 19.6577 31.4814 20.8516C31.4814 22.0308 30.5951 22.895 29.3866 22.895Z" fill="#444444"/>
<path d="M36.6965 28.1538C37.3923 28.1538 37.8684 27.6558 37.8684 26.9966C37.8684 26.3301 37.3923 25.8394 36.6965 25.8394C36.008 25.8394 35.5246 26.3301 35.5246 26.9966C35.5246 27.6558 36.008 28.1538 36.6965 28.1538ZM36.6965 22.6606C37.3923 22.6606 37.8684 22.1699 37.8684 21.5107C37.8684 20.8442 37.3923 20.3535 36.6965 20.3535C36.008 20.3535 35.5246 20.8442 35.5246 21.5107C35.5246 22.1699 36.008 22.6606 36.6965 22.6606Z" fill="#444444"/>
<path d="M44.7241 28H46.5332V26.0298H47.9614V24.4331H46.5332V17.4312H43.8672C41.9995 20.2437 40.5127 22.5947 39.5606 24.3452V26.0298H44.7241V28ZM41.311 24.3672C42.5415 22.1992 43.6401 20.4634 44.6509 18.9692H44.7534V24.4771H41.311V24.3672Z" fill="#444444"/>
<path d="M51.99 28H53.8797V17.4312H51.9974L49.2361 19.3647V21.1812L51.8655 19.3354H51.99V28Z" fill="#444444"/>
</svg>
