<svg width="390" height="81" viewBox="0 0 390 81" fill="none" xmlns="http://www.w3.org/2000/svg">
<rect width="390" height="80" fill="#F8F8F8"/>
<rect x="-1" y="40" width="390" height="41" fill="#F8F8F8"/>
<path fill-rule="evenodd" clip-rule="evenodd" d="M47.5 14.2805L56.6971 22.5737L56.6976 27.4876C56.6976 29.3833 55.2199 30.9283 53.3713 30.9976L53.2417 31H50.9358C50.3286 31 49.831 30.5224 49.787 29.9166L49.7839 29.8292V27.1196C49.7839 25.87 48.8156 24.8498 47.5987 24.7891L47.4839 24.7863C46.2483 24.7863 45.2426 25.7686 45.1828 27.0031L45.18 27.1196V29.8292C45.18 30.4464 44.71 30.9521 44.114 30.9968L44.028 31H41.7221C39.8569 31 38.3367 29.4981 38.2686 27.6192L38.2661 27.4876V22.607L47.5 14.2805ZM46.7216 10.2912C47.1309 9.92577 47.7315 9.90427 48.1633 10.2267L48.2422 10.2912L58.6099 19.6577C59.0864 20.0848 59.1328 20.8234 58.7135 21.3086C58.3564 21.7203 57.7777 21.8161 57.319 21.5739L48.264 13.4085L48.1849 13.3432C47.7789 13.0373 47.2211 13.0373 46.8151 13.3432L46.736 13.4085L37.7863 21.4796C37.3118 21.7984 36.6702 21.718 36.2872 21.2756C35.9012 20.8298 35.9073 20.1663 36.2872 19.7285L36.354 19.6577L46.7216 10.2912Z" fill="#3E69FE"/>
<path fill-rule="evenodd" clip-rule="evenodd" d="M155.1 11C155.735 11 156.25 11.4975 156.25 12.1111H158.55C160.455 12.1111 162 13.6035 162 15.4444V27.6667C162 29.5076 160.455 31 158.55 31H142.45C140.545 31 139 29.5076 139 27.6667V15.4444C139 13.6035 140.545 12.1111 142.45 12.1111H144.75C144.75 11.4975 145.265 11 145.9 11C146.535 11 147.05 11.4975 147.05 12.1111H153.95C153.95 11.4975 154.465 11 155.1 11ZM144.75 14.3333H142.45C141.815 14.3333 141.3 14.8308 141.3 15.4444V27.1111C141.3 28.0316 142.072 28.7778 143.025 28.7778H157.975C158.928 28.7778 159.7 28.0316 159.7 27.1111V15.4444C159.7 14.8308 159.185 14.3333 158.55 14.3333H156.25C156.25 14.947 155.735 15.4444 155.1 15.4444C154.465 15.4444 153.95 14.947 153.95 14.3333H147.05C147.05 14.947 146.535 15.4444 145.9 15.4444C145.265 15.4444 144.75 14.947 144.75 14.3333ZM147.28 25.4444C147.788 25.4444 148.2 25.8424 148.2 26.3333V26.7778C148.2 27.2687 147.788 27.6667 147.28 27.6667H146.82C146.312 27.6667 145.9 27.2687 145.9 26.7778V26.3333C145.9 25.8424 146.312 25.4444 146.82 25.4444H147.28ZM143.83 25.4444C144.338 25.4444 144.75 25.8424 144.75 26.3333V26.7778C144.75 27.2687 144.338 27.6667 143.83 27.6667H143.37C142.862 27.6667 142.45 27.2687 142.45 26.7778V26.3333C142.45 25.8424 142.862 25.4444 143.37 25.4444H143.83ZM150.73 25.4444C151.238 25.4444 151.65 25.8424 151.65 26.3333V26.7778C151.65 27.2687 151.238 27.6667 150.73 27.6667H150.27C149.762 27.6667 149.35 27.2687 149.35 26.7778V26.3333C149.35 25.8424 149.762 25.4444 150.27 25.4444H150.73ZM154.18 25.4444C154.688 25.4444 155.1 25.8424 155.1 26.3333V26.7778C155.1 27.2687 154.688 27.6667 154.18 27.6667H153.72C153.212 27.6667 152.8 27.2687 152.8 26.7778V26.3333C152.8 25.8424 153.212 25.4444 153.72 25.4444H154.18ZM147.28 21.5556C147.788 21.5556 148.2 21.9535 148.2 22.4444V22.8889C148.2 23.3798 147.788 23.7778 147.28 23.7778H146.82C146.312 23.7778 145.9 23.3798 145.9 22.8889V22.4444C145.9 21.9535 146.312 21.5556 146.82 21.5556H147.28ZM143.83 21.5556C144.338 21.5556 144.75 21.9535 144.75 22.4444V22.8889C144.75 23.3798 144.338 23.7778 143.83 23.7778H143.37C142.862 23.7778 142.45 23.3798 142.45 22.8889V22.4444C142.45 21.9535 142.862 21.5556 143.37 21.5556H143.83ZM150.73 21.5556C151.238 21.5556 151.65 21.9535 151.65 22.4444V22.8889C151.65 23.3798 151.238 23.7778 150.73 23.7778H150.27C149.762 23.7778 149.35 23.3798 149.35 22.8889V22.4444C149.35 21.9535 149.762 21.5556 150.27 21.5556H150.73ZM154.18 21.5556C154.688 21.5556 155.1 21.9535 155.1 22.4444V22.8889C155.1 23.3798 154.688 23.7778 154.18 23.7778H153.72C153.212 23.7778 152.8 23.3798 152.8 22.8889V22.4444C152.8 21.9535 153.212 21.5556 153.72 21.5556H154.18ZM157.63 21.5556C158.138 21.5556 158.55 21.9535 158.55 22.4444V22.8889C158.55 23.3798 158.138 23.7778 157.63 23.7778H157.17C156.662 23.7778 156.25 23.3798 156.25 22.8889V22.4444C156.25 21.9535 156.662 21.5556 157.17 21.5556H157.63ZM147.28 17.6667C147.788 17.6667 148.2 18.0646 148.2 18.5556V19C148.2 19.4909 147.788 19.8889 147.28 19.8889H146.82C146.312 19.8889 145.9 19.4909 145.9 19V18.5556C145.9 18.0646 146.312 17.6667 146.82 17.6667H147.28ZM150.73 17.6667C151.238 17.6667 151.65 18.0646 151.65 18.5556V19C151.65 19.4909 151.238 19.8889 150.73 19.8889H150.27C149.762 19.8889 149.35 19.4909 149.35 19V18.5556C149.35 18.0646 149.762 17.6667 150.27 17.6667H150.73ZM154.18 17.6667C154.688 17.6667 155.1 18.0646 155.1 18.5556V19C155.1 19.4909 154.688 19.8889 154.18 19.8889H153.72C153.212 19.8889 152.8 19.4909 152.8 19V18.5556C152.8 18.0646 153.212 17.6667 153.72 17.6667H154.18ZM157.63 17.6667C158.138 17.6667 158.55 18.0646 158.55 18.5556V19C158.55 19.4909 158.138 19.8889 157.63 19.8889H157.17C156.662 19.8889 156.25 19.4909 156.25 19V18.5556C156.25 18.0646 156.662 17.6667 157.17 17.6667H157.63Z" fill="#333333"/>
<path fill-rule="evenodd" clip-rule="evenodd" d="M262.103 9.00316C260.413 8.94955 258.767 9.57939 257.503 10.7633C256.24 9.57939 254.594 8.94955 252.904 9.00316C250.903 8.99596 249.004 9.93279 247.729 11.5563C246.633 12.9557 245.486 15.4894 246.246 19.6199C247.46 26.2127 256.556 31.624 256.94 31.8467C257.288 32.0511 257.712 32.0511 258.06 31.8467C258.447 31.6204 267.543 26.2091 268.754 19.6199C269.514 15.4894 268.368 12.9617 267.272 11.5563C265.998 9.93415 264.102 8.99743 262.103 9.00316ZM266.28 19.2036C265.445 23.7437 259.377 27.9675 257.507 29.1736C255.637 27.9675 249.569 23.7448 248.734 19.2036C248.159 16.0808 248.945 14.2669 249.708 13.2944C250.525 12.2567 251.74 11.6583 253.02 11.6635C254.393 11.5551 255.719 12.2133 256.512 13.3971C256.707 13.7758 257.082 14.0127 257.491 14.0155H257.505C257.911 14.0126 258.285 13.7812 258.484 13.4089C259.277 12.2157 260.61 11.552 261.989 11.6635C263.271 11.6569 264.488 12.2554 265.306 13.2944C266.066 14.2669 266.853 16.0808 266.278 19.2036H266.28Z" fill="#333333"/>
<path fill-rule="evenodd" clip-rule="evenodd" d="M348.5 20.5C356.834 20.5 360.857 24.4354 359.847 31.7959C359.753 32.4853 359.151 33 358.44 33H338.56C337.849 33 337.247 32.4853 337.153 31.7959C336.143 24.4354 340.166 20.5 348.5 20.5ZM348.5 23.2778C342.302 23.2778 339.61 25.4579 339.852 30.2222H357.148C357.39 25.4579 354.698 23.2778 348.5 23.2778ZM348.5 8C351.637 8 354.18 10.4873 354.18 13.5556C354.18 16.6238 351.637 19.1111 348.5 19.1111C345.363 19.1111 342.82 16.6238 342.82 13.5556C342.82 10.4873 345.363 8 348.5 8ZM348.5 10.7778C346.932 10.7778 345.66 12.0214 345.66 13.5556C345.66 15.0897 346.932 16.3333 348.5 16.3333C350.068 16.3333 351.34 15.0897 351.34 13.5556C351.34 12.0214 350.068 10.7778 348.5 10.7778Z" fill="#333333"/>
<rect x="128" y="67" width="134" height="5" rx="2.5" fill="#191052"/>
</svg>
