<svg width="50" height="49" viewBox="0 0 50 49" fill="none" xmlns="http://www.w3.org/2000/svg">
<path fill-rule="evenodd" clip-rule="evenodd" d="M21.8885 20.5529L16.4282 21.477L16.3502 21.4931C15.5855 21.6793 15.2977 22.619 15.8607 23.1857L19.7229 27.0736L18.9342 32.4398L18.9259 32.515C18.8688 33.2852 19.6943 33.8449 20.42 33.4958L25.393 31.1033L30.3661 33.4958L30.4366 33.5268C31.1677 33.818 31.9669 33.2229 31.8518 32.4398L31.0626 27.0736L34.9253 23.1857L34.9788 23.1279C35.4855 22.5375 35.1538 21.6118 34.3578 21.477L28.8969 20.5529L26.3112 15.7577C25.9217 15.0354 24.8643 15.0354 24.4748 15.7577L21.8885 20.5529Z" fill="#3E69FE"/>
<circle opacity="0.1" cx="25.393" cy="24.409" r="24.159" fill="#4C4DDC" stroke="#F5F5FF" stroke-width="0.5"/>
</svg>
