<svg width="49" height="49" viewBox="0 0 49 49" fill="none" xmlns="http://www.w3.org/2000/svg">
<path fill-rule="evenodd" clip-rule="evenodd" d="M33.784 13.314C35.8849 13.314 37.588 15.0171 37.588 17.118V27.262C37.588 29.3629 35.8849 31.066 33.784 31.066H24.4854C24.211 31.066 23.944 31.155 23.7246 31.3196L19.3288 34.6164C18.4929 35.2433 17.3 34.6469 17.3 33.602V31.066H16.032C13.9311 31.066 12.228 29.3629 12.228 27.262V17.118C12.228 15.0171 13.9311 13.314 16.032 13.314H33.784ZM19.836 20.922C20.5363 20.922 21.104 21.4897 21.104 22.19C21.104 22.8903 20.5363 23.458 19.836 23.458C19.1357 23.458 18.568 22.8903 18.568 22.19C18.568 21.4897 19.1357 20.922 19.836 20.922ZM24.908 20.922C25.6083 20.922 26.176 21.4897 26.176 22.19C26.176 22.8903 25.6083 23.458 24.908 23.458C24.2077 23.458 23.64 22.8903 23.64 22.19C23.64 21.4897 24.2077 20.922 24.908 20.922ZM29.98 20.922C30.6803 20.922 31.248 21.4897 31.248 22.19C31.248 22.8903 30.6803 23.458 29.98 23.458C29.2797 23.458 28.712 22.8903 28.712 22.19C28.712 21.4897 29.2797 20.922 29.98 20.922Z" fill="#5178FE"/>
<circle opacity="0.1" cx="24.591" cy="24.409" r="24.159" fill="#4C4DDC" stroke="#F5F5FF" stroke-width="0.5"/>
</svg>
