<svg width="19" height="18" viewBox="0 0 19 18" fill="none" xmlns="http://www.w3.org/2000/svg">
<path fill-rule="evenodd" clip-rule="evenodd" d="M6.11215 5.22485L0.833521 6.1296L0.758078 6.14533C0.0188727 6.32765 -0.259398 7.24758 0.284904 7.80243L4.01852 11.6086L3.25614 16.8622L3.2481 16.9358C3.19285 17.6899 3.99088 18.2378 4.69244 17.8961L9.5 15.5537L14.3076 17.8961L14.3757 17.9264C15.0825 18.2115 15.8551 17.6289 15.7439 16.8622L14.981 11.6086L18.7151 7.80243L18.7668 7.74576C19.2567 7.1678 18.936 6.26152 18.1665 6.1296L12.8873 5.22485L10.3877 0.53035C10.0111 -0.176783 8.9889 -0.176783 8.61232 0.53035L6.11215 5.22485Z" fill="#FFD33C"/>
</svg>
